G04 #@! TF.GenerationSoftware,KiCad,Pcbnew,(5.1.5)-3*
G04 #@! TF.CreationDate,2020-05-13T17:56:41+02:00*
G04 #@! TF.ProjectId,endgame_manualroute,656e6467-616d-4655-9f6d-616e75616c72,rev?*
G04 #@! TF.SameCoordinates,Original*
G04 #@! TF.FileFunction,Profile,NP*
%FSLAX46Y46*%
G04 Gerber Fmt 4.6, Leading zero omitted, Abs format (unit mm)*
G04 Created by KiCad (PCBNEW (5.1.5)-3) date 2020-05-13 17:56:41*
%MOMM*%
%LPD*%
G04 APERTURE LIST*
%ADD10C,0.200000*%
%ADD11C,0.150000*%
G04 APERTURE END LIST*
D10*
X205995044Y-59849771D02*
X201995045Y-59849771D01*
X210995044Y-60849771D02*
X210995045Y-62805104D01*
X20517263Y-94530821D02*
X3532097Y-157920325D01*
X336305684Y-180358467D02*
X406336640Y-161594567D01*
X391472825Y-94530821D02*
X375717259Y-35730246D01*
X200995044Y-60849770D02*
G75*
G02X201995045Y-59849771I1000000J-1D01*
G01*
X205995044Y-59849771D02*
X209995045Y-59849771D01*
X372043023Y-33608926D02*
G75*
G02X375717259Y-35730246I776458J-2897778D01*
G01*
X36272827Y-35730245D02*
G75*
G02X39947065Y-33608925I2897779J-776459D01*
G01*
X272430202Y-200092944D02*
G75*
G02X270797288Y-200193246I-993417J2830746D01*
G01*
X75684404Y-180358467D02*
G75*
G02X139559885Y-200092943I-228552969J-853009444D01*
G01*
X212009933Y-63804993D02*
G75*
G02X210995045Y-62805104I-14888J999889D01*
G01*
X200995046Y-62805106D02*
G75*
G02X199980155Y-63804994I-1000001J2D01*
G01*
X5653449Y-161594568D02*
X75684403Y-180358467D01*
X408457991Y-157920325D02*
G75*
G02X406336640Y-161594567I-2897776J-776457D01*
G01*
X209995045Y-59849772D02*
G75*
G02X210995044Y-60849771I0J-999999D01*
G01*
X200995044Y-60849771D02*
X200995046Y-62805106D01*
X101432151Y-50083805D02*
X39947065Y-33608925D01*
X199980157Y-63804993D02*
G75*
G02X101432151Y-50083805I6014887J403955223D01*
G01*
X372043025Y-33608926D02*
X310557938Y-50083804D01*
X408457992Y-157920325D02*
X391472825Y-94530821D01*
X272430203Y-200092943D02*
G75*
G02X336305684Y-180358467I292428453J-833274968D01*
G01*
X310557938Y-50083805D02*
G75*
G02X212009932Y-63804993I-104562894J390234035D01*
G01*
X141192800Y-200193246D02*
G75*
G02X270797288Y-200193246I64802244J-297012909D01*
G01*
X141192798Y-200193246D02*
G75*
G02X139559885Y-200092943I-639495J2931047D01*
G01*
X5653449Y-161594568D02*
G75*
G02X3532097Y-157920325I776425J2897786D01*
G01*
X36272829Y-35730246D02*
X20517263Y-94530821D01*
D11*
X41891059Y-166751485D02*
X41891060Y-162751487D01*
X45391059Y-166751487D02*
X41891059Y-166751485D01*
X41891060Y-162751487D02*
X45391061Y-162751485D01*
X45391061Y-162751485D02*
X45391059Y-166751487D01*
X81291057Y-172251485D02*
X81291060Y-176251488D01*
X77791060Y-172251485D02*
X81291057Y-172251485D01*
X77791059Y-176251486D02*
X77791060Y-172251485D01*
X81291060Y-176251488D02*
X77791059Y-176251486D01*
X113741059Y-182751487D02*
X117241060Y-182751487D01*
X117241060Y-182751487D02*
X117241060Y-186751486D01*
X117241060Y-186751486D02*
X113741060Y-186751486D01*
X113741060Y-186751486D02*
X113741059Y-182751487D01*
X151441059Y-192251485D02*
X151441061Y-188251487D01*
X154941059Y-188251486D02*
X154941060Y-192251485D01*
X151441061Y-188251487D02*
X154941059Y-188251486D01*
X154941060Y-192251485D02*
X151441059Y-192251485D01*
X185191059Y-188251487D02*
X185191059Y-184251485D01*
X188691058Y-184251486D02*
X188691059Y-188251484D01*
X188691059Y-188251484D02*
X185191059Y-188251487D01*
X185191059Y-184251485D02*
X188691058Y-184251486D01*
X223141061Y-188251488D02*
X223141059Y-184251486D01*
X223141059Y-184251486D02*
X226641061Y-184251485D01*
X226641061Y-184251485D02*
X226641061Y-188251487D01*
X226641061Y-188251487D02*
X223141061Y-188251488D01*
X257541061Y-188251487D02*
X261041059Y-188251486D01*
X261041059Y-188251486D02*
X261041059Y-192251485D01*
X261041059Y-192251485D02*
X257541061Y-192251486D01*
X257541061Y-192251486D02*
X257541061Y-188251487D01*
X300041059Y-181201487D02*
X303541059Y-181201486D01*
X303541059Y-181201486D02*
X303541062Y-185201487D01*
X303541062Y-185201487D02*
X300041061Y-185201486D01*
X300041061Y-185201486D02*
X300041059Y-181201487D01*
X330491058Y-176751486D02*
X330491061Y-172751486D01*
X333991059Y-176751486D02*
X330491058Y-176751486D01*
X330491061Y-172751486D02*
X333991059Y-172751487D01*
X333991059Y-172751487D02*
X333991059Y-176751486D01*
X369891059Y-166751486D02*
X366391058Y-166751485D01*
X369891061Y-162751487D02*
X369891059Y-166751486D01*
X366391058Y-166751485D02*
X366391060Y-162751487D01*
X366391060Y-162751487D02*
X369891061Y-162751487D01*
X359191061Y-42181485D02*
X359191059Y-46181485D01*
X355691061Y-46181485D02*
X355691060Y-42181485D01*
X355691060Y-42181485D02*
X359191061Y-42181485D01*
X359191059Y-46181485D02*
X355691061Y-46181485D01*
X319121060Y-56171487D02*
X319121058Y-52171486D01*
X322621060Y-52171487D02*
X322621058Y-56171487D01*
X319121058Y-52171486D02*
X322621060Y-52171487D01*
X322621058Y-56171487D02*
X319121060Y-56171487D01*
X285591058Y-63751487D02*
X282091061Y-63751487D01*
X282091059Y-59751485D02*
X285591062Y-59751486D01*
X285591062Y-59751486D02*
X285591058Y-63751487D01*
X282091061Y-63751487D02*
X282091059Y-59751485D01*
X245741061Y-64751485D02*
X245741057Y-68751486D01*
X242241060Y-64751485D02*
X245741061Y-64751485D01*
X245741057Y-68751486D02*
X242241061Y-68751486D01*
X242241061Y-68751486D02*
X242241060Y-64751485D01*
X238841058Y-94251487D02*
X242341061Y-94251486D01*
X238841060Y-98251486D02*
X238841058Y-94251487D01*
X242341061Y-94251486D02*
X242341056Y-98251487D01*
X242341056Y-98251487D02*
X238841060Y-98251486D01*
X215441058Y-98251484D02*
X215441060Y-94251486D01*
X215441060Y-94251486D02*
X218941060Y-94251487D01*
X218941060Y-94251487D02*
X218941060Y-98251487D01*
X218941060Y-98251487D02*
X215441058Y-98251484D01*
X191841060Y-98251486D02*
X191841061Y-94251485D01*
X195341059Y-94251485D02*
X195341060Y-98251486D01*
X191841061Y-94251485D02*
X195341059Y-94251485D01*
X195341060Y-98251486D02*
X191841060Y-98251486D01*
X172841058Y-98251487D02*
X169341059Y-98251486D01*
X169341060Y-94251485D02*
X172841059Y-94251486D01*
X172841059Y-94251486D02*
X172841058Y-98251487D01*
X169341059Y-98251486D02*
X169341060Y-94251485D01*
X166241060Y-68251485D02*
X166241062Y-64251485D01*
X169741059Y-68251485D02*
X166241060Y-68251485D01*
X169741058Y-64251487D02*
X169741059Y-68251485D01*
X166241062Y-64251485D02*
X169741058Y-64251487D01*
X129941059Y-59751487D02*
X129941059Y-63751486D01*
X129941059Y-63751486D02*
X126441060Y-63751486D01*
X126441060Y-59751487D02*
X129941059Y-59751487D01*
X126441060Y-63751486D02*
X126441060Y-59751487D01*
X92641061Y-51751487D02*
X92641059Y-55751485D01*
X89141059Y-55751484D02*
X89141058Y-51751487D01*
X89141058Y-51751487D02*
X92641061Y-51751487D01*
X92641059Y-55751485D02*
X89141059Y-55751484D01*
X56392136Y-46113532D02*
X52892135Y-46113530D01*
X56392135Y-42113530D02*
X56392136Y-46113532D01*
X52892135Y-46113530D02*
X52892135Y-42113534D01*
X52892135Y-42113534D02*
X56392135Y-42113530D01*
X32491061Y-69001486D02*
X36491060Y-69001487D01*
X32491061Y-72501489D02*
X32491061Y-69001486D01*
X36491059Y-72501485D02*
X32491061Y-72501489D01*
X36491060Y-69001487D02*
X36491059Y-72501485D01*
X22296666Y-108763822D02*
X26296664Y-108763819D01*
X22296663Y-112263821D02*
X22296666Y-108763822D01*
X26296664Y-112263822D02*
X22296663Y-112263821D01*
X26296664Y-108763819D02*
X26296664Y-112263822D01*
X16991059Y-141501488D02*
X16991061Y-145001484D01*
X12991059Y-145001486D02*
X12991061Y-141501486D01*
X16991061Y-145001484D02*
X12991059Y-145001486D01*
X12991061Y-141501486D02*
X16991059Y-141501488D01*
X398748348Y-144388760D02*
X394748350Y-144388761D01*
X398748348Y-140888762D02*
X398748348Y-144388760D01*
X394748350Y-144388761D02*
X394748348Y-140888762D01*
X394748348Y-140888762D02*
X398748348Y-140888762D01*
X385984374Y-108487941D02*
X389984374Y-108487941D01*
X389984374Y-108487941D02*
X389984374Y-111987940D01*
X389984374Y-111987940D02*
X385984373Y-111987941D01*
X385984373Y-111987941D02*
X385984374Y-108487941D01*
X379491058Y-68951487D02*
X379491058Y-72451485D01*
X379491058Y-72451485D02*
X375491060Y-72451486D01*
X375491060Y-68951485D02*
X379491058Y-68951487D01*
X375491060Y-72451486D02*
X375491060Y-68951485D01*
X245991059Y-72501485D02*
X245991061Y-76001486D01*
X241991061Y-76001488D02*
X241991060Y-72501487D01*
X245991061Y-76001486D02*
X241991061Y-76001488D01*
X241991060Y-72501487D02*
X245991059Y-72501485D01*
X165991061Y-76001485D02*
X165991061Y-72501485D01*
X169991059Y-76001486D02*
X165991061Y-76001485D01*
X169991059Y-72501487D02*
X169991059Y-76001486D01*
X165991061Y-72501485D02*
X169991059Y-72501487D01*
M02*
