M48
; DRILL file {KiCad (5.1.5)-3} date 05/13/20 17:56:43
; FORMAT={-:-/ absolute / inch / decimal}
; #@! TF.CreationDate,2020-05-13T17:56:43+02:00
; #@! TF.GenerationSoftware,Kicad,Pcbnew,(5.1.5)-3
; #@! TF.FileFunction,NonPlated,1,2,NPTH
FMAT,2
INCH
T1C0.0315
T2C0.0787
T3C0.1575
%
G90
G05
T1
X8.0311Y-2.5449
X8.1886Y-2.5449
T3
X13.2817Y-3.0338
X15.6464Y-6.0787
X6.9879Y-4.1482
X4.4765Y-5.9629
X13.4787Y-6.6595
X2.5509Y-4.4789
X11.0207Y-6.1565
X9.232Y-5.6443
X2.9381Y-3.0338
X13.8625Y-5.2015
X14.7302Y-5.5498
X12.2238Y-4.8662
X0.9606Y-4.6336
X13.0915Y-5.2144
X15.2592Y-4.6336
X5.3478Y-2.7115
X3.3218Y-4.4919
X5.0573Y-3.7953
X9.232Y-6.3923
X3.5154Y-3.7694
X10.8271Y-5.434
X8.4839Y-6.3923
X3.1801Y-2.1307
X14.343Y-4.1047
X14.1494Y-3.3821
X11.5946Y-2.5179
X1.4895Y-5.5498
X1.1542Y-3.9111
X13.6689Y-4.4789
X12.8979Y-4.4919
X15.0656Y-3.9111
X6.0703Y-2.9051
X2.7416Y-6.6597
X3.8024Y-5.5887
X5.4684Y-7.3804
X7.7359Y-4.1482
X3.709Y-3.0468
X10.4399Y-3.9889
X7.7359Y-7.1403
X4.6252Y-2.5179
X14.4847Y-1.7435
X11.6076Y-6.8624
X2.4576Y-1.9371
X13.4753Y-3.7564
X12.5107Y-3.0468
X15.4528Y-5.3562
X3.5604Y-6.4919
X4.6122Y-6.8624
X8.4839Y-5.6443
X3.996Y-4.8662
X5.1991Y-6.1565
X8.4839Y-4.1482
X2.3573Y-5.2015
X10.872Y-2.7115
X7.7359Y-4.8962
X3.1282Y-5.2144
X14.5366Y-4.8272
X11.7432Y-5.9629
X1.735Y-1.7435
X2.0704Y-3.3821
X1.8768Y-4.1047
X13.0396Y-2.1307
X5.3927Y-5.434
X4.8637Y-4.5179
X9.232Y-4.1482
X4.1896Y-4.1436
X4.6701Y-5.2404
X10.1495Y-2.9051
X3.9026Y-2.3243
X11.5496Y-5.2404
X8.4839Y-4.8962
X2.1153Y-6.1047
X14.1045Y-6.1047
X12.0302Y-4.1436
X0.5734Y-6.0787
X1.3478Y-3.1885
X13.2851Y-5.937
X14.872Y-3.1885
X6.9879Y-5.6443
X5.5863Y-4.7114
X7.7359Y-6.3923
X4.3832Y-3.4211
X6.9879Y-6.3923
X10.6335Y-4.7114
X9.232Y-4.8962
X1.2959Y-6.2723
X11.356Y-4.5179
X7.7359Y-5.6443
X13.7622Y-1.9371
X12.6594Y-6.4919
X12.3171Y-2.3243
X0.767Y-5.3562
X1.6831Y-4.8272
X12.7043Y-3.7694
X6.9879Y-4.8962
X5.7799Y-3.9889
X6.9879Y-7.1403
X2.9347Y-5.937
X10.7514Y-7.3804
X8.4839Y-7.1403
X2.7445Y-3.7564
X11.1624Y-3.7953
X9.232Y-7.1403
X14.9238Y-6.2723
X12.4174Y-5.5887
X11.8366Y-3.4211
T2
G00X13.0896Y-3.0853
M15
G01X13.0706Y-3.0904
M16
G05
G00X13.4927Y-2.9773
M15
G01X13.4737Y-2.9824
M16
G05
G00X15.4543Y-6.1302
M15
G01X15.4353Y-6.1353
M16
G05
G00X15.8574Y-6.0222
M15
G01X15.8384Y-6.0273
M16
G05
G00X6.7891Y-4.1482
M15
G01X6.7694Y-4.1482
M16
G05
G00X7.2064Y-4.1482
M15
G01X7.1867Y-4.1482
M16
G05
G00X4.2845Y-5.9115
M15
G01X4.2655Y-5.9064
M16
G05
G00X4.6876Y-6.0195
M15
G01X4.6686Y-6.0144
M16
G05
G00X13.2867Y-6.711
M15
G01X13.2677Y-6.7161
M16
G05
G00X13.6898Y-6.603
M15
G01X13.6708Y-6.6081
M16
G05
G00X2.3589Y-4.4275
M15
G01X2.3398Y-4.4224
M16
G05
G00X2.762Y-4.5355
M15
G01X2.7429Y-4.5304
M16
G05
G00X10.8287Y-6.208
M15
G01X10.8097Y-6.2131
M16
G05
G00X11.2318Y-6.1
M15
G01X11.2128Y-6.1051
M16
G05
G00X9.0332Y-5.6443
M15
G01X9.0135Y-5.6443
M16
G05
G00X9.4505Y-5.6443
M15
G01X9.4308Y-5.6443
M16
G05
G00X2.7461Y-2.9824
M15
G01X2.727Y-2.9773
M16
G05
G00X3.1492Y-3.0904
M15
G01X3.1301Y-3.0853
M16
G05
G00X13.6704Y-5.2529
M15
G01X13.6514Y-5.258
M16
G05
G00X14.0735Y-5.1449
M15
G01X14.0545Y-5.15
M16
G05
G00X14.5382Y-5.6012
M15
G01X14.5192Y-5.6063
M16
G05
G00X14.9413Y-5.4932
M15
G01X14.9223Y-5.4983
M16
G05
G00X12.0317Y-4.9176
M15
G01X12.0127Y-4.9227
M16
G05
G00X12.4348Y-4.8096
M15
G01X12.4158Y-4.8147
M16
G05
G00X0.7686Y-4.5822
M15
G01X0.7495Y-4.5771
M16
G05
G00X1.1717Y-4.6902
M15
G01X1.1526Y-4.6851
M16
G05
G00X12.8995Y-5.2659
M15
G01X12.8805Y-5.271
M16
G05
G00X13.3026Y-5.1579
M15
G01X13.2836Y-5.163
M16
G05
G00X15.0671Y-4.6851
M15
G01X15.0481Y-4.6902
M16
G05
G00X15.4702Y-4.5771
M15
G01X15.4512Y-4.5822
M16
G05
G00X5.1557Y-2.66
M15
G01X5.1367Y-2.6549
M16
G05
G00X5.5588Y-2.768
M15
G01X5.5398Y-2.7629
M16
G05
G00X3.1298Y-4.4405
M15
G01X3.1108Y-4.4354
M16
G05
G00X3.5329Y-4.5485
M15
G01X3.5139Y-4.5434
M16
G05
G00X4.8653Y-3.7438
M15
G01X4.8463Y-3.7387
M16
G05
G00X5.2684Y-3.8519
M15
G01X5.2494Y-3.8468
M16
G05
G00X9.0332Y-6.3923
M15
G01X9.0135Y-6.3923
M16
G05
G00X9.4505Y-6.3923
M15
G01X9.4308Y-6.3923
M16
G05
G00X3.3234Y-3.7179
M15
G01X3.3044Y-3.7128
M16
G05
G00X3.7265Y-3.8259
M15
G01X3.7075Y-3.8208
M16
G05
G00X10.635Y-5.4855
M15
G01X10.616Y-5.4905
M16
G05
G00X11.0381Y-5.3774
M15
G01X11.0191Y-5.3825
M16
G05
G00X8.2851Y-6.3923
M15
G01X8.2654Y-6.3923
M16
G05
G00X8.7024Y-6.3923
M15
G01X8.6828Y-6.3923
M16
G05
G00X2.9881Y-2.0792
M15
G01X2.9691Y-2.0741
M16
G05
G00X3.3912Y-2.1872
M15
G01X3.3722Y-2.1821
M16
G05
G00X14.151Y-4.1562
M15
G01X14.132Y-4.1612
M16
G05
G00X14.5541Y-4.0481
M15
G01X14.5351Y-4.0532
M16
G05
G00X13.9574Y-3.4336
M15
G01X13.9384Y-3.4387
M16
G05
G00X14.3605Y-3.3256
M15
G01X14.3415Y-3.3307
M16
G05
G00X11.4025Y-2.5693
M15
G01X11.3835Y-2.5744
M16
G05
G00X11.8056Y-2.4613
M15
G01X11.7866Y-2.4664
M16
G05
G00X1.2975Y-5.4983
M15
G01X1.2785Y-5.4932
M16
G05
G00X1.7006Y-5.6063
M15
G01X1.6816Y-5.6012
M16
G05
G00X0.9622Y-3.8596
M15
G01X0.9432Y-3.8545
M16
G05
G00X1.3653Y-3.9676
M15
G01X1.3463Y-3.9625
M16
G05
G00X13.4768Y-4.5304
M15
G01X13.4578Y-4.5355
M16
G05
G00X13.8799Y-4.4224
M15
G01X13.8609Y-4.4275
M16
G05
G00X12.7059Y-4.5434
M15
G01X12.6869Y-4.5485
M16
G05
G00X13.109Y-4.4354
M15
G01X13.09Y-4.4405
M16
G05
G00X14.8735Y-3.9625
M15
G01X14.8545Y-3.9676
M16
G05
G00X15.2766Y-3.8545
M15
G01X15.2576Y-3.8596
M16
G05
G00X5.8782Y-2.8536
M15
G01X5.8592Y-2.8485
M16
G05
G00X6.2813Y-2.9616
M15
G01X6.2623Y-2.9565
M16
G05
G00X2.5495Y-6.6082
M15
G01X2.5305Y-6.6031
M16
G05
G00X2.9526Y-6.7162
M15
G01X2.9336Y-6.7111
M16
G05
G00X3.6103Y-5.5372
M15
G01X3.5913Y-5.5321
M16
G05
G00X4.0134Y-5.6452
M15
G01X3.9944Y-5.6401
M16
G05
G00X5.3161Y-7.2526
M15
G01X5.301Y-7.24
M16
G05
G00X5.6358Y-7.5209
M15
G01X5.6207Y-7.5082
M16
G05
G00X7.5371Y-4.1482
M15
G01X7.5174Y-4.1482
M16
G05
G00X7.9544Y-4.1482
M15
G01X7.9347Y-4.1482
M16
G05
G00X3.517Y-2.9954
M15
G01X3.498Y-2.9903
M16
G05
G00X3.9201Y-3.1034
M15
G01X3.9011Y-3.0983
M16
G05
G00X10.2478Y-4.0404
M15
G01X10.2288Y-4.0455
M16
G05
G00X10.6509Y-3.9323
M15
G01X10.6319Y-3.9374
M16
G05
G00X7.5174Y-7.1403
M15
G01X7.5371Y-7.1403
M16
G05
G00X7.9347Y-7.1403
M15
G01X7.9544Y-7.1403
M16
G05
G00X4.4332Y-2.4664
M15
G01X4.4141Y-2.4613
M16
G05
G00X4.8363Y-2.5744
M15
G01X4.8172Y-2.5693
M16
G05
G00X14.2927Y-1.7949
M15
G01X14.2737Y-1.8
M16
G05
G00X14.6958Y-1.6869
M15
G01X14.6768Y-1.692
M16
G05
G00X11.4274Y-6.9464
M15
G01X11.4096Y-6.9547
M16
G05
G00X11.8056Y-6.77
M15
G01X11.7878Y-6.7784
M16
G05
G00X2.2655Y-1.8856
M15
G01X2.2465Y-1.8805
M16
G05
G00X2.6686Y-1.9936
M15
G01X2.6496Y-1.9885
M16
G05
G00X13.2832Y-3.8078
M15
G01X13.2642Y-3.8129
M16
G05
G00X13.6863Y-3.6998
M15
G01X13.6673Y-3.7049
M16
G05
G00X12.3187Y-3.0983
M15
G01X12.2997Y-3.1034
M16
G05
G00X12.7218Y-2.9903
M15
G01X12.7028Y-2.9954
M16
G05
G00X15.2417Y-5.4127
M15
G01X15.2607Y-5.4076
M16
G05
G00X15.6448Y-5.3047
M15
G01X15.6638Y-5.2996
M16
G05
G00X3.3684Y-6.4404
M15
G01X3.3494Y-6.4353
M16
G05
G00X3.7715Y-6.5484
M15
G01X3.7525Y-6.5433
M16
G05
G00X4.4321Y-6.7784
M15
G01X4.4142Y-6.77
M16
G05
G00X4.8103Y-6.9547
M15
G01X4.7924Y-6.9464
M16
G05
G00X8.2851Y-5.6443
M15
G01X8.2654Y-5.6443
M16
G05
G00X8.7024Y-5.6443
M15
G01X8.6828Y-5.6443
M16
G05
G00X3.8039Y-4.8147
M15
G01X3.7849Y-4.8096
M16
G05
G00X4.207Y-4.9227
M15
G01X4.188Y-4.9176
M16
G05
G00X5.007Y-6.1051
M15
G01X4.988Y-6.1
M16
G05
G00X5.4101Y-6.2131
M15
G01X5.3911Y-6.208
M16
G05
G00X8.2851Y-4.1482
M15
G01X8.2654Y-4.1482
M16
G05
G00X8.7024Y-4.1482
M15
G01X8.6828Y-4.1482
M16
G05
G00X2.1652Y-5.15
M15
G01X2.1462Y-5.1449
M16
G05
G00X2.5683Y-5.258
M15
G01X2.5493Y-5.2529
M16
G05
G00X10.68Y-2.7629
M15
G01X10.661Y-2.768
M16
G05
G00X11.0831Y-2.6549
M15
G01X11.0641Y-2.66
M16
G05
G00X7.5371Y-4.8962
M15
G01X7.5174Y-4.8962
M16
G05
G00X7.9544Y-4.8962
M15
G01X7.9347Y-4.8962
M16
G05
G00X2.9362Y-5.163
M15
G01X2.9172Y-5.1579
M16
G05
G00X3.3393Y-5.271
M15
G01X3.3203Y-5.2659
M16
G05
G00X14.3446Y-4.8787
M15
G01X14.3256Y-4.8838
M16
G05
G00X14.7477Y-4.7707
M15
G01X14.7287Y-4.7758
M16
G05
G00X11.5512Y-6.0144
M15
G01X11.5322Y-6.0195
M16
G05
G00X11.9543Y-5.9064
M15
G01X11.9353Y-5.9115
M16
G05
G00X1.543Y-1.692
M15
G01X1.524Y-1.6869
M16
G05
G00X1.9461Y-1.8
M15
G01X1.9271Y-1.7949
M16
G05
G00X1.8783Y-3.3307
M15
G01X1.8593Y-3.3256
M16
G05
G00X2.2814Y-3.4387
M15
G01X2.2624Y-3.4336
M16
G05
G00X1.6847Y-4.0532
M15
G01X1.6657Y-4.0481
M16
G05
G00X2.0878Y-4.1612
M15
G01X2.0688Y-4.1562
M16
G05
G00X12.8476Y-2.1821
M15
G01X12.8286Y-2.1872
M16
G05
G00X13.2507Y-2.0741
M15
G01X13.2317Y-2.0792
M16
G05
G00X5.2006Y-5.3825
M15
G01X5.1816Y-5.3774
M16
G05
G00X5.6037Y-5.4905
M15
G01X5.5847Y-5.4855
M16
G05
G00X4.6717Y-4.4664
M15
G01X4.6527Y-4.4613
M16
G05
G00X5.0748Y-4.5744
M15
G01X5.0558Y-4.5693
M16
G05
G00X9.0332Y-4.1482
M15
G01X9.0135Y-4.1482
M16
G05
G00X9.4505Y-4.1482
M15
G01X9.4308Y-4.1482
M16
G05
G00X3.9975Y-4.0921
M15
G01X3.9785Y-4.087
M16
G05
G00X4.4006Y-4.2002
M15
G01X4.3816Y-4.1951
M16
G05
G00X4.4781Y-5.1889
M15
G01X4.4591Y-5.1838
M16
G05
G00X4.8812Y-5.2969
M15
G01X4.8622Y-5.2918
M16
G05
G00X9.9574Y-2.9565
M15
G01X9.9384Y-2.9616
M16
G05
G00X10.3605Y-2.8485
M15
G01X10.3415Y-2.8536
M16
G05
G00X3.7106Y-2.2728
M15
G01X3.6916Y-2.2677
M16
G05
G00X4.1137Y-2.3808
M15
G01X4.0947Y-2.3757
M16
G05
G00X11.3576Y-5.2918
M15
G01X11.3386Y-5.2969
M16
G05
G00X11.7607Y-5.1838
M15
G01X11.7417Y-5.1889
M16
G05
G00X8.2851Y-4.8962
M15
G01X8.2654Y-4.8962
M16
G05
G00X8.7024Y-4.8962
M15
G01X8.6828Y-4.8962
M16
G05
G00X1.9233Y-6.0532
M15
G01X1.9043Y-6.0481
M16
G05
G00X2.3264Y-6.1612
M15
G01X2.3074Y-6.1561
M16
G05
G00X13.9124Y-6.1561
M15
G01X13.8934Y-6.1612
M16
G05
G00X14.3155Y-6.0481
M15
G01X14.2965Y-6.0532
M16
G05
G00X11.8382Y-4.1951
M15
G01X11.8191Y-4.2002
M16
G05
G00X12.2413Y-4.087
M15
G01X12.2222Y-4.0921
M16
G05
G00X0.3814Y-6.0273
M15
G01X0.3623Y-6.0222
M16
G05
G00X0.7845Y-6.1353
M15
G01X0.7654Y-6.1302
M16
G05
G00X1.1558Y-3.1371
M15
G01X1.1368Y-3.132
M16
G05
G00X1.5589Y-3.2451
M15
G01X1.5399Y-3.24
M16
G05
G00X13.0931Y-5.9884
M15
G01X13.0741Y-5.9935
M16
G05
G00X13.4962Y-5.8804
M15
G01X13.4772Y-5.8855
M16
G05
G00X14.6799Y-3.24
M15
G01X14.6609Y-3.2451
M16
G05
G00X15.083Y-3.132
M15
G01X15.064Y-3.1371
M16
G05
G00X6.7891Y-5.6443
M15
G01X6.7694Y-5.6443
M16
G05
G00X7.2064Y-5.6443
M15
G01X7.1867Y-5.6443
M16
G05
G00X5.3942Y-4.66
M15
G01X5.3752Y-4.6549
M16
G05
G00X5.7973Y-4.768
M15
G01X5.7783Y-4.7629
M16
G05
G00X7.5371Y-6.3923
M15
G01X7.5174Y-6.3923
M16
G05
G00X7.9544Y-6.3923
M15
G01X7.9347Y-6.3923
M16
G05
G00X4.1911Y-3.3696
M15
G01X4.1721Y-3.3645
M16
G05
G00X4.5942Y-3.4776
M15
G01X4.5752Y-3.4725
M16
G05
G00X6.7891Y-6.3923
M15
G01X6.7694Y-6.3923
M16
G05
G00X7.2064Y-6.3923
M15
G01X7.1867Y-6.3923
M16
G05
G00X10.4415Y-4.7629
M15
G01X10.4224Y-4.768
M16
G05
G00X10.8446Y-4.6549
M15
G01X10.8256Y-4.66
M16
G05
G00X9.0332Y-4.8962
M15
G01X9.0135Y-4.8962
M16
G05
G00X9.4505Y-4.8962
M15
G01X9.4308Y-4.8962
M16
G05
G00X1.1039Y-6.2208
M15
G01X1.0849Y-6.2157
M16
G05
G00X1.507Y-6.3289
M15
G01X1.488Y-6.3238
M16
G05
G00X11.164Y-4.5693
M15
G01X11.145Y-4.5744
M16
G05
G00X11.5671Y-4.4613
M15
G01X11.5481Y-4.4664
M16
G05
G00X7.5371Y-5.6443
M15
G01X7.5174Y-5.6443
M16
G05
G00X7.9544Y-5.6443
M15
G01X7.9347Y-5.6443
M16
G05
G00X13.5702Y-1.9885
M15
G01X13.5511Y-1.9936
M16
G05
G00X13.9733Y-1.8805
M15
G01X13.9543Y-1.8856
M16
G05
G00X12.4674Y-6.5433
M15
G01X12.4484Y-6.5484
M16
G05
G00X12.8705Y-6.4353
M15
G01X12.8515Y-6.4404
M16
G05
G00X12.1251Y-2.3757
M15
G01X12.1061Y-2.3808
M16
G05
G00X12.5282Y-2.2677
M15
G01X12.5092Y-2.2728
M16
G05
G00X0.5559Y-5.2996
M15
G01X0.575Y-5.3047
M16
G05
G00X0.959Y-5.4076
M15
G01X0.9781Y-5.4127
M16
G05
G00X1.4911Y-4.7758
M15
G01X1.4721Y-4.7707
M16
G05
G00X1.8942Y-4.8838
M15
G01X1.8752Y-4.8787
M16
G05
G00X12.5123Y-3.8208
M15
G01X12.4933Y-3.8259
M16
G05
G00X12.9154Y-3.7128
M15
G01X12.8964Y-3.7179
M16
G05
G00X6.7891Y-4.8962
M15
G01X6.7694Y-4.8962
M16
G05
G00X7.2064Y-4.8962
M15
G01X7.1867Y-4.8962
M16
G05
G00X5.5878Y-3.9374
M15
G01X5.5688Y-3.9323
M16
G05
G00X5.9909Y-4.0455
M15
G01X5.9719Y-4.0404
M16
G05
G00X6.7891Y-7.1403
M15
G01X6.7694Y-7.1403
M16
G05
G00X7.2064Y-7.1403
M15
G01X7.1867Y-7.1403
M16
G05
G00X2.7426Y-5.8855
M15
G01X2.7236Y-5.8804
M16
G05
G00X3.1457Y-5.9935
M15
G01X3.1267Y-5.9884
M16
G05
G00X10.5991Y-7.5082
M15
G01X10.584Y-7.5209
M16
G05
G00X10.9188Y-7.24
M15
G01X10.9037Y-7.2526
M16
G05
G00X8.2851Y-7.1403
M15
G01X8.2654Y-7.1403
M16
G05
G00X8.7024Y-7.1403
M15
G01X8.6828Y-7.1403
M16
G05
G00X2.5525Y-3.7049
M15
G01X2.5334Y-3.6998
M16
G05
G00X2.9556Y-3.8129
M15
G01X2.9365Y-3.8078
M16
G05
G00X10.9704Y-3.8468
M15
G01X10.9514Y-3.8519
M16
G05
G00X11.3735Y-3.7387
M15
G01X11.3545Y-3.7438
M16
G05
G00X9.0135Y-7.1403
M15
G01X9.0332Y-7.1403
M16
G05
G00X9.4308Y-7.1403
M15
G01X9.4505Y-7.1403
M16
G05
G00X14.7318Y-6.3238
M15
G01X14.7128Y-6.3289
M16
G05
G00X15.1349Y-6.2157
M15
G01X15.1159Y-6.2208
M16
G05
G00X12.2254Y-5.6401
M15
G01X12.2063Y-5.6452
M16
G05
G00X12.6285Y-5.5321
M15
G01X12.6094Y-5.5372
M16
G05
G00X11.6445Y-3.4725
M15
G01X11.6255Y-3.4776
M16
G05
G00X12.0476Y-3.3645
M15
G01X12.0286Y-3.3696
M16
G05
T0
M30
