M48
; DRILL file {KiCad (5.1.5)-3} date 05/13/20 17:56:43
; FORMAT={-:-/ absolute / inch / decimal}
; #@! TF.CreationDate,2020-05-13T17:56:43+02:00
; #@! TF.GenerationSoftware,Kicad,Pcbnew,(5.1.5)-3
; #@! TF.FileFunction,Plated,1,2,PTH
FMAT,2
INCH
T1C0.0079
T2C0.0157
T3C0.0256
T4C0.0472
T5C0.0591
T6C0.0866
%
G90
G05
T1
X3.232Y-6.3872
X4.2658Y-2.7382
X5.3824Y-3.1
X6.052Y-3.4913
X6.1417Y-3.7544
X6.1637Y-5.3
X6.2074Y-4.6528
X6.2267Y-4.5563
X6.231Y-6.0215
X6.2401Y-4.4961
X6.2547Y-5.2386
X6.274Y-5.1926
X6.2759Y-4.4461
X6.2929Y-5.1496
X6.3177Y-5.2445
X6.3318Y-5.2709
X6.3346Y-4.5909
X6.3507Y-4.2843
X6.3512Y-4.535
X6.3523Y-6.0
X6.3736Y-5.2032
X6.3913Y-5.1496
X6.4047Y-6.0532
X6.4133Y-5.0859
X6.424Y-5.9788
X6.446Y-5.9418
X6.4673Y-5.8847
X6.4787Y-6.0607
X6.5082Y-5.8142
X6.5208Y-5.9122
X6.5217Y-3.019
X6.5448Y-5.9642
X6.7Y-3.0146
X6.7507Y-2.8294
X6.7726Y-2.7755
X6.9094Y-3.1083
X6.9106Y-3.3646
X7.0527Y-3.3693
X7.0783Y-3.3898
X7.3162Y-3.467
X7.3808Y-3.3489
X7.443Y-3.8871
X7.5126Y-3.0166
X7.6445Y-3.071
X7.7654Y-3.0339
X7.797Y-3.003
X7.8768Y-6.8304
X7.8855Y-3.1304
X7.8989Y-3.3965
X7.9078Y-6.6922
X7.9203Y-2.6848
X7.927Y-3.4262
X7.9496Y-3.0638
X7.9593Y-3.4588
X7.9871Y-3.4862
X8.0056Y-6.748
X8.0609Y-3.3238
X8.0802Y-7.2942
X8.0831Y-3.3434
X8.1688Y-7.0481
X8.2296Y-3.0362
X8.2324Y-3.0917
X8.2418Y-3.2331
X8.269Y-3.6862
X8.2729Y-3.4847
X8.2777Y-3.1798
X8.3097Y-3.3793
X8.3321Y-3.3569
X8.3389Y-2.8277
X8.355Y-3.3336
X8.3642Y-2.9532
X8.3642Y-2.9173
X8.3646Y-2.8457
X8.3646Y-2.8823
X8.3778Y-3.3112
X8.4605Y-2.7962
X8.5707Y-3.4199
X8.6056Y-3.0634
X8.6226Y-3.4583
X8.6676Y-2.9533
X8.6999Y-2.9206
X8.7105Y-2.7832
X8.7306Y-2.8903
X8.7581Y-2.8628
X8.7644Y-4.2388
X8.7884Y-3.31
X8.789Y-3.3469
X8.829Y-5.96
X8.9117Y-3.4037
X9.1483Y-3.2506
X9.1975Y-3.4699
X9.2384Y-3.1805
X9.5719Y-2.773
X9.6687Y-5.8852
X9.6923Y-5.8585
X9.7137Y-5.8139
X9.7353Y-5.9974
X9.7522Y-5.7663
X9.7719Y-5.8585
X9.7955Y-5.9777
X9.7983Y-5.9171
X9.8086Y-5.0856
X9.8179Y-5.9702
X9.831Y-5.3159
X9.8479Y-5.3624
X9.8484Y-5.2029
X9.8644Y-4.4726
X9.8696Y-6.0108
X9.8699Y-5.9478
X9.8712Y-4.284
X9.8873Y-5.4325
X9.8876Y-4.5376
X9.8901Y-5.2706
X9.9043Y-5.2442
X9.9219Y-3.0671
X9.929Y-5.0624
X9.9483Y-5.3332
X9.9486Y-4.4432
X9.9673Y-5.2383
X9.9687Y-5.3935
X9.9829Y-4.2199
X9.9908Y-5.9541
X10.0035Y-4.4935
X10.0235Y-4.5395
X10.0372Y-2.6551
X10.0582Y-5.2994
X10.0593Y-5.458
X10.142Y-3.8214
X11.7994Y-2.8348
X13.4874Y-2.3902
X13.7756Y-6.2083
X14.0009Y-2.31
T2
X0.9665Y-5.8144
X0.9855Y-5.7685
X0.9855Y-5.8604
X1.0314Y-5.7495
X1.0314Y-5.8794
X1.0774Y-5.7685
X1.0774Y-5.8604
X1.0964Y-5.8144
X14.3282Y-2.5426
X14.3472Y-2.4967
X14.3472Y-2.5885
X14.3932Y-2.4776
X14.3932Y-2.6076
X14.4391Y-2.4967
X14.4391Y-2.5885
X14.4581Y-2.5426
X1.7616Y-2.5426
X1.7807Y-2.4967
X1.7807Y-2.5885
X1.8266Y-2.4776
X1.8266Y-2.6076
X1.8725Y-2.4967
X1.8725Y-2.5885
X1.8916Y-2.5426
X5.9429Y-6.6668
X5.9619Y-6.6208
X5.9619Y-6.7127
X6.0079Y-6.6018
X6.0079Y-6.7317
X6.0538Y-6.6208
X6.0538Y-6.7127
X6.0728Y-6.6668
X15.1233Y-5.8144
X15.1424Y-5.7685
X15.1424Y-5.8604
X15.1883Y-5.7495
X15.1883Y-5.8794
X15.2342Y-5.7685
X15.2342Y-5.8604
X15.2533Y-5.8144
X10.5625Y-3.358
X10.5815Y-3.3121
X10.5815Y-3.4039
X10.6275Y-3.2931
X10.6275Y-3.423
X10.6734Y-3.3121
X10.6734Y-3.4039
X10.6924Y-3.358
X10.1469Y-6.6668
X10.166Y-6.6208
X10.166Y-6.7127
X10.2119Y-6.6018
X10.2119Y-6.7317
X10.2578Y-6.6208
X10.2578Y-6.7127
X10.2769Y-6.6668
X5.5273Y-3.358
X5.5464Y-3.3121
X5.5464Y-3.4039
X5.5923Y-3.2931
X5.5923Y-3.423
X5.6382Y-3.3121
X5.6382Y-3.4039
X5.6572Y-3.358
T4
X15.495Y-6.2742
X15.7065Y-6.3031
X6.791Y-4.2978
X6.9879Y-4.3805
X4.2477Y-6.0565
X4.4164Y-6.1873
X13.3273Y-6.855
X13.5389Y-6.8839
X2.322Y-4.5725
X2.4908Y-4.7033
X10.8693Y-6.352
X11.0808Y-6.3809
X9.0351Y-5.7939
X9.232Y-5.8766
X2.7092Y-3.1274
X2.878Y-3.2582
X13.7111Y-5.3969
X13.9226Y-5.4258
X14.5788Y-5.7452
X14.7904Y-5.7742
X12.0724Y-5.0616
X12.2839Y-5.0905
X0.7317Y-4.7272
X0.9005Y-4.858
X12.9401Y-5.4099
X13.1517Y-5.4388
X15.1078Y-4.8291
X15.3193Y-4.858
X5.1189Y-2.805
X5.2876Y-2.9359
X3.093Y-4.5855
X3.2617Y-4.7163
X4.8285Y-3.8889
X4.9972Y-4.0197
X9.0351Y-6.5419
X9.232Y-6.6246
X3.2866Y-3.8629
X3.4553Y-3.9937
X10.6757Y-5.6295
X10.8872Y-5.6584
X8.2871Y-6.5419
X8.4839Y-6.6246
X2.9512Y-2.2242
X3.12Y-2.355
X14.1916Y-4.3001
X14.4032Y-4.3291
X13.998Y-3.5776
X14.2095Y-3.6065
X11.4431Y-2.7133
X11.6547Y-2.7422
X1.2607Y-5.6433
X1.4294Y-5.7742
X0.9253Y-4.0046
X1.0941Y-4.1355
X13.5174Y-4.6744
X13.729Y-4.7033
X12.7465Y-4.6874
X12.958Y-4.7163
X14.9141Y-4.1065
X15.1257Y-4.1355
X5.8414Y-2.9986
X6.0102Y-3.1295
X2.5127Y-6.7532
X2.6814Y-6.884
X3.5735Y-5.6822
X3.7422Y-5.813
X5.2215Y-7.3685
X5.3191Y-7.5584
X7.5391Y-4.2978
X7.7359Y-4.3805
X3.4802Y-3.1404
X3.6489Y-3.2712
X10.2885Y-4.1844
X10.5Y-4.2133
X7.7359Y-6.9081
X7.9328Y-6.9907
X4.3963Y-2.6114
X4.5651Y-2.7422
X14.3333Y-1.9389
X14.5448Y-1.9678
X11.4924Y-7.0812
X11.7058Y-7.0729
X2.2287Y-2.0306
X2.3974Y-2.1614
X13.3239Y-3.9518
X13.5354Y-3.9808
X12.3593Y-3.2423
X12.5708Y-3.2712
X15.3926Y-5.1318
X15.6042Y-5.1607
X3.3316Y-6.5854
X3.5003Y-6.7162
X4.3706Y-6.9148
X4.5141Y-7.0729
X8.2871Y-5.7939
X8.4839Y-5.8766
X3.7671Y-4.9597
X3.9359Y-5.0905
X4.9702Y-6.2501
X5.1389Y-6.3809
X8.2871Y-4.2978
X8.4839Y-4.3805
X2.1284Y-5.295
X2.2972Y-5.4258
X10.7206Y-2.9069
X10.9321Y-2.9359
X7.5391Y-5.0458
X7.7359Y-5.1285
X2.8994Y-5.308
X3.0681Y-5.4388
X14.3852Y-5.0227
X14.5967Y-5.0516
X11.5918Y-6.1584
X11.8034Y-6.1873
X1.5062Y-1.837
X1.6749Y-1.9678
X1.8415Y-3.4757
X2.0102Y-3.6065
X1.6479Y-4.1983
X1.8166Y-4.3291
X12.8882Y-2.3261
X13.0998Y-2.355
X5.1638Y-5.5276
X5.3326Y-5.6584
X4.6349Y-4.6114
X4.8036Y-4.7422
X9.0351Y-4.2978
X9.232Y-4.3805
X3.9607Y-4.2372
X4.1294Y-4.368
X4.4413Y-5.3339
X4.61Y-5.4647
X9.9981Y-3.1005
X10.2096Y-3.1295
X3.6738Y-2.4178
X3.8425Y-2.5486
X11.3982Y-5.4358
X11.6098Y-5.4647
X8.2871Y-5.0458
X8.4839Y-5.1285
X1.8865Y-6.1982
X2.0552Y-6.329
X13.9531Y-6.3001
X14.1646Y-6.329
X11.8788Y-4.3391
X12.0903Y-4.368
X0.3445Y-6.1723
X0.5133Y-6.3031
X1.119Y-3.2821
X1.2877Y-3.4129
X13.1337Y-6.1324
X13.3452Y-6.1614
X14.7205Y-3.384
X14.9321Y-3.4129
X6.791Y-5.7939
X6.9879Y-5.8766
X5.3574Y-4.805
X5.5261Y-4.9358
X7.5391Y-6.5419
X7.7359Y-6.6246
X4.1543Y-3.5146
X4.3231Y-3.6454
X6.791Y-6.5419
X6.9879Y-6.6246
X10.4821Y-4.9069
X10.6936Y-4.9358
X9.0351Y-5.0458
X9.232Y-5.1285
X1.0671Y-6.3659
X1.2358Y-6.4967
X11.2046Y-4.7133
X11.4161Y-4.7422
X7.5391Y-5.7939
X7.7359Y-5.8766
X13.6108Y-2.1325
X13.8223Y-2.1614
X12.508Y-6.6873
X12.7195Y-6.7162
X12.1657Y-2.5197
X12.3772Y-2.5486
X0.8271Y-5.1318
X0.9959Y-5.2626
X1.4543Y-4.9208
X1.623Y-5.0516
X12.5529Y-3.9648
X12.7645Y-3.9937
X6.791Y-5.0458
X6.9879Y-5.1285
X5.551Y-4.0825
X5.7198Y-4.2133
X6.791Y-7.2899
X6.9879Y-7.3726
X2.7058Y-6.0305
X2.8746Y-6.1614
X10.6968Y-7.6216
X10.9007Y-7.5584
X8.2871Y-7.2899
X8.4839Y-7.3726
X2.5156Y-3.8499
X2.6844Y-3.9808
X11.011Y-3.9908
X11.2226Y-4.0197
X9.232Y-6.9081
X9.4288Y-6.9907
X14.7724Y-6.4678
X14.9839Y-6.4967
X12.266Y-5.7841
X12.4775Y-5.813
X11.6852Y-3.6165
X11.8967Y-3.6454
X13.1302Y-3.2293
X13.3418Y-3.2582
T6
X5.5923Y-3.358
X1.0314Y-5.8144
X14.3932Y-2.5426
X1.8266Y-2.5426
X6.0079Y-6.6668
X15.1883Y-5.8144
X10.6275Y-3.358
X10.2119Y-6.6668
T3
G00X7.9682Y-2.4701
M15
G01X7.9682Y-2.4229
M16
G05
G00X7.9682Y-2.606
M15
G01X7.9682Y-2.5587
M16
G05
G00X8.2516Y-2.4701
M15
G01X8.2516Y-2.4229
M16
G05
G00X8.2516Y-2.606
M15
G01X8.2516Y-2.5587
M16
G05
T5
G00X1.0059Y-4.0784
M15
G01X1.0133Y-4.0568
M16
G05
G00X1.2275Y-4.0937
M15
G01X1.2733Y-4.0465
M16
G05
G00X13.624Y-4.698
M15
G01X13.6196Y-4.6755
M16
G05
G00X13.8237Y-4.6005
M15
G01X13.8397Y-4.5367
M16
G05
G00X12.8531Y-4.7109
M15
G01X12.8487Y-4.6885
M16
G05
G00X13.0527Y-4.6134
M15
G01X13.0687Y-4.5497
M16
G05
G00X15.0207Y-4.1301
M15
G01X15.0163Y-4.1077
M16
G05
G00X15.2204Y-4.0326
M15
G01X15.2364Y-3.9689
M16
G05
G00X5.9219Y-3.0724
M15
G01X5.9293Y-3.0508
M16
G05
G00X6.1436Y-3.0877
M15
G01X6.1893Y-3.0405
M16
G05
G00X2.5932Y-6.8269
M15
G01X2.6006Y-6.8053
M16
G05
G00X2.8149Y-6.8423
M15
G01X2.8606Y-6.7951
M16
G05
G00X3.654Y-5.756
M15
G01X3.6614Y-5.7344
M16
G05
G00X3.8757Y-5.7713
M15
G01X3.9214Y-5.7241
M16
G05
G00X5.2633Y-7.4693
M15
G01X5.2791Y-7.4529
M16
G05
G00X5.4577Y-7.5769
M15
G01X5.5191Y-7.5535
M16
G05
G00X7.6359Y-4.3482
M15
G01X7.6375Y-4.3254
M16
G05
G00X7.854Y-4.3057
M15
G01X7.886Y-4.2482
M16
G05
G00X3.5607Y-3.2141
M15
G01X3.5681Y-3.1925
M16
G05
G00X3.7823Y-3.2295
M15
G01X3.8281Y-3.1823
M16
G05
G00X10.3951Y-4.2079
M15
G01X10.3907Y-4.1855
M16
G05
G00X10.5947Y-4.1104
M15
G01X10.6107Y-4.0467
M16
G05
G00X7.6178Y-6.9829
M15
G01X7.5859Y-7.0403
M16
G05
G00X7.8359Y-6.9404
M15
G01X7.8343Y-6.9631
M16
G05
G00X4.4769Y-2.6852
M15
G01X4.4843Y-2.6636
M16
G05
G00X4.6985Y-2.7005
M15
G01X4.7442Y-2.6533
M16
G05
G00X14.4399Y-1.9625
M15
G01X14.4355Y-1.9401
M16
G05
G00X14.6395Y-1.865
M15
G01X14.6555Y-1.8012
M16
G05
G00X11.6015Y-7.0859
M15
G01X11.5933Y-7.0646
M16
G05
G00X11.7812Y-6.9552
M15
G01X11.7859Y-6.8896
M16
G05
G00X2.3092Y-2.1043
M15
G01X2.3166Y-2.0827
M16
G05
G00X2.5309Y-2.1197
M15
G01X2.5766Y-2.0725
M16
G05
G00X13.4305Y-3.9754
M15
G01X13.4261Y-3.953
M16
G05
G00X13.6301Y-3.8779
M15
G01X13.6461Y-3.8142
M16
G05
G00X12.4659Y-3.2659
M15
G01X12.4615Y-3.2434
M16
G05
G00X12.6655Y-3.1684
M15
G01X12.6815Y-3.1046
M16
G05
G00X15.298Y-5.2346
M15
G01X15.2819Y-5.2984
M16
G05
G00X15.4976Y-5.1371
M15
G01X15.502Y-5.1595
M16
G05
G00X3.4121Y-6.6592
M15
G01X3.4195Y-6.6375
M16
G05
G00X3.6337Y-6.6745
M15
G01X3.6795Y-6.6273
M16
G05
G00X4.4371Y-7.0014
M15
G01X4.4481Y-6.9814
M16
G05
G00X4.6527Y-7.055
M15
G01X4.706Y-7.0164
M16
G05
G00X8.384Y-5.8442
M15
G01X8.3855Y-5.8215
M16
G05
G00X8.602Y-5.8017
M15
G01X8.634Y-5.7443
M16
G05
G00X3.8476Y-5.0334
M15
G01X3.855Y-5.0118
M16
G05
G00X4.0693Y-5.0488
M15
G01X4.115Y-5.0016
M16
G05
G00X5.0507Y-6.3238
M15
G01X5.0581Y-6.3022
M16
G05
G00X5.2723Y-6.3392
M15
G01X5.3181Y-6.292
M16
G05
G00X8.384Y-4.3482
M15
G01X8.3855Y-4.3254
M16
G05
G00X8.602Y-4.3057
M15
G01X8.634Y-4.2482
M16
G05
G00X2.209Y-5.3688
M15
G01X2.2163Y-5.3472
M16
G05
G00X2.4306Y-5.3841
M15
G01X2.4763Y-5.3369
M16
G05
G00X10.8272Y-2.9305
M15
G01X10.8228Y-2.9081
M16
G05
G00X11.0268Y-2.833
M15
G01X11.0428Y-2.7693
M16
G05
G00X7.6359Y-5.0962
M15
G01X7.6375Y-5.0734
M16
G05
G00X7.854Y-5.0537
M15
G01X7.886Y-4.9963
M16
G05
G00X2.9799Y-5.3817
M15
G01X2.9873Y-5.3601
M16
G05
G00X3.2015Y-5.3971
M15
G01X3.2473Y-5.3499
M16
G05
G00X14.4918Y-5.0463
M15
G01X14.4874Y-5.0239
M16
G05
G00X14.6914Y-4.9488
M15
G01X14.7074Y-4.885
M16
G05
G00X11.6984Y-6.182
M15
G01X11.694Y-6.1596
M16
G05
G00X11.898Y-6.0845
M15
G01X11.914Y-6.0207
M16
G05
G00X1.5867Y-1.9107
M15
G01X1.5941Y-1.8891
M16
G05
G00X1.8083Y-1.9261
M15
G01X1.8541Y-1.8789
M16
G05
G00X1.922Y-3.5494
M15
G01X1.9294Y-3.5278
M16
G05
G00X2.1437Y-3.5648
M15
G01X2.1894Y-3.5176
M16
G05
G00X1.7284Y-4.272
M15
G01X1.7358Y-4.2504
M16
G05
G00X1.95Y-4.2873
M15
G01X1.9958Y-4.2401
M16
G05
G00X12.9948Y-2.3497
M15
G01X12.9904Y-2.3273
M16
G05
G00X13.1944Y-2.2522
M15
G01X13.2105Y-2.1884
M16
G05
G00X5.2443Y-5.6013
M15
G01X5.2517Y-5.5797
M16
G05
G00X5.466Y-5.6167
M15
G01X5.5117Y-5.5694
M16
G05
G00X4.7154Y-4.6851
M15
G01X4.7228Y-4.6635
M16
G05
G00X4.937Y-4.7005
M15
G01X4.9828Y-4.6533
M16
G05
G00X9.132Y-4.3482
M15
G01X9.1335Y-4.3254
M16
G05
G00X9.35Y-4.3057
M15
G01X9.382Y-4.2482
M16
G05
G00X4.0412Y-4.3109
M15
G01X4.0486Y-4.2893
M16
G05
G00X4.2629Y-4.3263
M15
G01X4.3086Y-4.279
M16
G05
G00X4.5218Y-5.4077
M15
G01X4.5292Y-5.3861
M16
G05
G00X4.7434Y-5.423
M15
G01X4.7892Y-5.3758
M16
G05
G00X10.1047Y-3.1241
M15
G01X10.1003Y-3.1017
M16
G05
G00X10.3043Y-3.0266
M15
G01X10.3203Y-2.9629
M16
G05
G00X3.7543Y-2.4916
M15
G01X3.7617Y-2.47
M16
G05
G00X3.9759Y-2.5069
M15
G01X4.0217Y-2.4597
M16
G05
G00X11.5048Y-5.4594
M15
G01X11.5004Y-5.437
M16
G05
G00X11.7044Y-5.3619
M15
G01X11.7205Y-5.2981
M16
G05
G00X8.384Y-5.0962
M15
G01X8.3855Y-5.0734
M16
G05
G00X8.602Y-5.0537
M15
G01X8.634Y-4.9963
M16
G05
G00X1.967Y-6.2719
M15
G01X1.9744Y-6.2503
M16
G05
G00X2.1886Y-6.2873
M15
G01X2.2344Y-6.2401
M16
G05
G00X14.0597Y-6.3237
M15
G01X14.0553Y-6.3013
M16
G05
G00X14.2593Y-6.2262
M15
G01X14.2753Y-6.1624
M16
G05
G00X11.9854Y-4.3626
M15
G01X11.981Y-4.3402
M16
G05
G00X12.185Y-4.2651
M15
G01X12.201Y-4.2014
M16
G05
G00X0.4251Y-6.246
M15
G01X0.4325Y-6.2244
M16
G05
G00X0.6467Y-6.2614
M15
G01X0.6924Y-6.2142
M16
G05
G00X1.1995Y-3.3558
M15
G01X1.2069Y-3.3342
M16
G05
G00X1.4211Y-3.3712
M15
G01X1.4669Y-3.324
M16
G05
G00X13.2403Y-6.156
M15
G01X13.2359Y-6.1336
M16
G05
G00X13.4399Y-6.0585
M15
G01X13.4559Y-5.9948
M16
G05
G00X14.8271Y-3.4076
M15
G01X14.8227Y-3.3852
M16
G05
G00X15.0268Y-3.3101
M15
G01X15.0428Y-3.2463
M16
G05
G00X6.8879Y-5.8442
M15
G01X6.8894Y-5.8215
M16
G05
G00X7.1059Y-5.8017
M15
G01X7.1379Y-5.7443
M16
G05
G00X5.4379Y-4.8787
M15
G01X5.4453Y-4.8571
M16
G05
G00X5.6596Y-4.8941
M15
G01X5.7053Y-4.8469
M16
G05
G00X7.6359Y-6.5923
M15
G01X7.6375Y-6.5695
M16
G05
G00X7.854Y-6.5498
M15
G01X7.886Y-6.4923
M16
G05
G00X4.2349Y-3.5883
M15
G01X4.2422Y-3.5667
M16
G05
G00X4.4565Y-3.6037
M15
G01X4.5022Y-3.5565
M16
G05
G00X6.8879Y-6.5923
M15
G01X6.8894Y-6.5695
M16
G05
G00X7.1059Y-6.5498
M15
G01X7.1379Y-6.4923
M16
G05
G00X10.5887Y-4.9305
M15
G01X10.5843Y-4.9081
M16
G05
G00X10.7883Y-4.833
M15
G01X10.8043Y-4.7692
M16
G05
G00X9.132Y-5.0962
M15
G01X9.1335Y-5.0734
M16
G05
G00X9.35Y-5.0537
M15
G01X9.382Y-4.9963
M16
G05
G00X1.1476Y-6.4396
M15
G01X1.155Y-6.418
M16
G05
G00X1.3692Y-6.455
M15
G01X1.415Y-6.4077
M16
G05
G00X11.3112Y-4.7369
M15
G01X11.3068Y-4.7145
M16
G05
G00X11.5108Y-4.6394
M15
G01X11.5268Y-4.5756
M16
G05
G00X7.6359Y-5.8442
M15
G01X7.6375Y-5.8215
M16
G05
G00X7.854Y-5.8017
M15
G01X7.886Y-5.7443
M16
G05
G00X13.7174Y-2.1561
M15
G01X13.713Y-2.1337
M16
G05
G00X13.917Y-2.0586
M15
G01X13.933Y-1.9948
M16
G05
G00X12.6146Y-6.7109
M15
G01X12.6102Y-6.6885
M16
G05
G00X12.8142Y-6.6134
M15
G01X12.8302Y-6.5496
M16
G05
G00X12.2723Y-2.5433
M15
G01X12.2679Y-2.5209
M16
G05
G00X12.4719Y-2.4458
M15
G01X12.4879Y-2.382
M16
G05
G00X0.6937Y-5.1735
M15
G01X0.648Y-5.2207
M16
G05
G00X0.9153Y-5.1889
M15
G01X0.9079Y-5.2105
M16
G05
G00X1.5348Y-4.9945
M15
G01X1.5422Y-4.9729
M16
G05
G00X1.7564Y-5.0099
M15
G01X1.8022Y-4.9627
M16
G05
G00X12.6595Y-3.9884
M15
G01X12.6551Y-3.966
M16
G05
G00X12.8591Y-3.8909
M15
G01X12.8751Y-3.8271
M16
G05
G00X6.8879Y-5.0962
M15
G01X6.8894Y-5.0734
M16
G05
G00X7.1059Y-5.0537
M15
G01X7.1379Y-4.9963
M16
G05
G00X5.6315Y-4.1562
M15
G01X5.6389Y-4.1346
M16
G05
G00X5.8532Y-4.1716
M15
G01X5.8989Y-4.1243
M16
G05
G00X6.8879Y-7.3403
M15
G01X6.8894Y-7.3175
M16
G05
G00X7.1059Y-7.2978
M15
G01X7.1379Y-7.2403
M16
G05
G00X2.7863Y-6.1043
M15
G01X2.7937Y-6.0827
M16
G05
G00X3.008Y-6.1196
M15
G01X3.0537Y-6.0724
M16
G05
G00X10.8034Y-7.5979
M15
G01X10.7899Y-7.5794
M16
G05
G00X10.9431Y-7.4251
M15
G01X10.9306Y-7.3606
M16
G05
G00X8.384Y-7.3403
M15
G01X8.3855Y-7.3175
M16
G05
G00X8.602Y-7.2978
M15
G01X8.634Y-7.2403
M16
G05
G00X2.5962Y-3.9237
M15
G01X2.6036Y-3.9021
M16
G05
G00X2.8178Y-3.939
M15
G01X2.8635Y-3.8918
M16
G05
G00X11.1176Y-4.0143
M15
G01X11.1132Y-3.9919
M16
G05
G00X11.3172Y-3.9168
M15
G01X11.3333Y-3.8531
M16
G05
G00X9.1139Y-6.9829
M15
G01X9.0819Y-7.0403
M16
G05
G00X9.332Y-6.9404
M15
G01X9.3304Y-6.9631
M16
G05
G00X14.879Y-6.4913
M15
G01X14.8746Y-6.4689
M16
G05
G00X15.0786Y-6.3938
M15
G01X15.0946Y-6.3301
M16
G05
G00X12.3726Y-5.8077
M15
G01X12.3682Y-5.7853
M16
G05
G00X12.5722Y-5.7102
M15
G01X12.5882Y-5.6465
M16
G05
G00X11.7918Y-3.6401
M15
G01X11.7874Y-3.6177
M16
G05
G00X11.9914Y-3.5426
M15
G01X12.0074Y-3.4788
M16
G05
G00X13.2368Y-3.2529
M15
G01X13.2324Y-3.2305
M16
G05
G00X13.4365Y-3.1554
M15
G01X13.4525Y-3.0916
M16
G05
G00X15.6016Y-6.2978
M15
G01X15.5972Y-6.2754
M16
G05
G00X15.8012Y-6.2003
M15
G01X15.8172Y-6.1365
M16
G05
G00X6.8879Y-4.3482
M15
G01X6.8894Y-4.3254
M16
G05
G00X7.1059Y-4.3057
M15
G01X7.1379Y-4.2482
M16
G05
G00X4.3282Y-6.1302
M15
G01X4.3356Y-6.1086
M16
G05
G00X4.5498Y-6.1456
M15
G01X4.5956Y-6.0984
M16
G05
G00X13.4339Y-6.8786
M15
G01X13.4295Y-6.8562
M16
G05
G00X13.6335Y-6.7811
M15
G01X13.6496Y-6.7173
M16
G05
G00X2.4026Y-4.6462
M15
G01X2.41Y-4.6246
M16
G05
G00X2.6242Y-4.6616
M15
G01X2.6699Y-4.6144
M16
G05
G00X10.9759Y-6.3756
M15
G01X10.9715Y-6.3531
M16
G05
G00X11.1755Y-6.2781
M15
G01X11.1915Y-6.2143
M16
G05
G00X9.132Y-5.8442
M15
G01X9.1335Y-5.8215
M16
G05
G00X9.35Y-5.8017
M15
G01X9.382Y-5.7443
M16
G05
G00X2.7898Y-3.2011
M15
G01X2.7972Y-3.1795
M16
G05
G00X3.0114Y-3.2165
M15
G01X3.0571Y-3.1693
M16
G05
G00X13.8177Y-5.4205
M15
G01X13.8133Y-5.3981
M16
G05
G00X14.0173Y-5.323
M15
G01X14.0333Y-5.2592
M16
G05
G00X14.6854Y-5.7688
M15
G01X14.681Y-5.7464
M16
G05
G00X14.885Y-5.6713
M15
G01X14.9011Y-5.6076
M16
G05
G00X12.179Y-5.0852
M15
G01X12.1746Y-5.0628
M16
G05
G00X12.3786Y-4.9877
M15
G01X12.3946Y-4.9239
M16
G05
G00X0.8123Y-4.8009
M15
G01X0.8197Y-4.7793
M16
G05
G00X1.0339Y-4.8163
M15
G01X1.0796Y-4.7691
M16
G05
G00X13.0467Y-5.4335
M15
G01X13.0423Y-5.4111
M16
G05
G00X13.2463Y-5.336
M15
G01X13.2624Y-5.2722
M16
G05
G00X15.2144Y-4.8527
M15
G01X15.21Y-4.8303
M16
G05
G00X15.414Y-4.7552
M15
G01X15.43Y-4.6914
M16
G05
G00X5.1994Y-2.8788
M15
G01X5.2068Y-2.8572
M16
G05
G00X5.421Y-2.8941
M15
G01X5.4668Y-2.8469
M16
G05
G00X3.1735Y-4.6592
M15
G01X3.1809Y-4.6376
M16
G05
G00X3.3951Y-4.6746
M15
G01X3.4409Y-4.6274
M16
G05
G00X4.909Y-3.9626
M15
G01X4.9164Y-3.941
M16
G05
G00X5.1306Y-3.978
M15
G01X5.1764Y-3.9307
M16
G05
G00X9.132Y-6.5923
M15
G01X9.1335Y-6.5695
M16
G05
G00X9.35Y-6.5498
M15
G01X9.382Y-6.4923
M16
G05
G00X3.3671Y-3.9366
M15
G01X3.3745Y-3.915
M16
G05
G00X3.5887Y-3.952
M15
G01X3.6345Y-3.9048
M16
G05
G00X10.7823Y-5.653
M15
G01X10.7779Y-5.6306
M16
G05
G00X10.9819Y-5.5555
M15
G01X10.9979Y-5.4918
M16
G05
G00X8.384Y-6.5923
M15
G01X8.3855Y-6.5695
M16
G05
G00X8.602Y-6.5498
M15
G01X8.634Y-6.4923
M16
G05
G00X3.0318Y-2.2979
M15
G01X3.0392Y-2.2763
M16
G05
G00X3.2534Y-2.3133
M15
G01X3.2992Y-2.2661
M16
G05
G00X14.2982Y-4.3237
M15
G01X14.2938Y-4.3013
M16
G05
G00X14.4978Y-4.2262
M15
G01X14.5139Y-4.1625
M16
G05
G00X14.1046Y-3.6012
M15
G01X14.1002Y-3.5788
M16
G05
G00X14.3042Y-3.5037
M15
G01X14.3202Y-3.4399
M16
G05
G00X11.5497Y-2.7369
M15
G01X11.5453Y-2.7145
M16
G05
G00X11.7494Y-2.6394
M15
G01X11.7654Y-2.5757
M16
G05
G00X1.3412Y-5.7171
M15
G01X1.3486Y-5.6955
M16
G05
G00X1.5628Y-5.7324
M15
G01X1.6086Y-5.6852
M16
G05
T0
M30
